<?xml version="1.0" encoding="utf-8"?>
<!-- Generator: Adobe Illustrator 15.0.0, SVG Export Plug-In . SVG Version: 6.00 Build 0)  -->
<!DOCTYPE svg PUBLIC "-//W3C//DTD SVG 1.1//EN" "http://www.w3.org/Graphics/SVG/1.1/DTD/svg11.dtd">
<svg version="1.1" id="Ebene_1" xmlns="http://www.w3.org/2000/svg" xmlns:xlink="http://www.w3.org/1999/xlink" x="0px" y="0px"
	 width="433.084px" height="127.494px" viewBox="0 0 433.084 127.494" enable-background="new 0 0 433.084 127.494"
	 xml:space="preserve">
<g>
	<rect x="42" y="26.39" fill="#CCCCCC" width="105" height="75"/>
	<path fill="#4A4A49" d="M149,102.39H41v-78h108V102.39z M44,99.39h102v-72H44V99.39z"/>
</g>
<rect x="268" y="26.39" fill="#CCCCCC" width="115" height="75"/>
<path fill="#4A4A49" d="M385,102.39H267v-78h118V102.39z M270,99.39h112v-72H270V99.39z"/>
<g>
	<rect x="147" y="62.39" fill="#4A4A49" width="12" height="3"/>
</g>
<g>
	<rect x="258" y="62.39" fill="#4A4A49" width="10" height="3"/>
</g>
<g>
	<path fill="#333399" d="M202.287,92.127c-2.588,1.249-8.3,2.678-15.619,2.678c-19.099,0-30.702-11.96-30.702-30.346
		c0-19.812,13.833-31.771,32.219-31.771c7.229,0,12.316,1.517,14.548,2.677l-2.321,8.747c-2.856-1.25-6.872-2.32-11.781-2.32
		c-12.227,0-21.062,7.675-21.062,22.133c0,13.299,7.675,21.688,20.973,21.688c4.374,0,9.014-0.893,11.959-2.143L202.287,92.127z"/>
</g>
<g>
	<g>
		<path fill="#333399" d="M94.976,92.127c-2.588,1.249-8.3,2.678-15.619,2.678c-19.099,0-30.702-11.96-30.702-30.346
			c0-19.812,13.833-31.771,32.219-31.771c7.229,0,12.316,1.517,14.548,2.677l-2.321,8.747c-2.856-1.25-6.872-2.32-11.781-2.32
			c-12.227,0-21.062,7.675-21.062,22.133c0,13.299,7.675,21.688,20.973,21.688c4.374,0,9.014-0.893,11.959-2.143L94.976,92.127z"/>
	</g>
	<g>
		<path fill="#333399" d="M140.428,63.344c0,15.977-11.245,23.115-22.312,23.115c-12.227,0-21.777-8.389-21.777-22.4
			c0-14.279,9.371-23.026,22.491-23.026C131.771,41.033,140.428,50.135,140.428,63.344z M107.674,63.792
			c0,8.389,4.194,14.725,10.799,14.725c6.248,0,10.621-6.068,10.621-14.904c0-6.783-3.034-14.637-10.531-14.637
			C110.798,48.975,107.674,56.561,107.674,63.792z"/>
	</g>
</g>
<g>
	<path fill="#333399" d="M259.103,63.345c0,15.976-11.246,23.114-22.312,23.114c-12.227,0-21.777-8.389-21.777-22.399
		c0-14.279,9.371-23.026,22.491-23.026C250.446,41.034,259.103,50.136,259.103,63.345z M226.349,63.792
		c0,8.388,4.193,14.724,10.799,14.724c6.247,0,10.62-6.068,10.62-14.903c0-6.783-3.034-14.637-10.531-14.637
		C229.472,48.976,226.349,56.562,226.349,63.792z"/>
</g>
<g>
	<path fill="#333399" d="M318.035,33.669h14.279l0.016,60.154h-9.39l0.003-49.801L308.229,93.11h-8.391l-15.361-49.087l0.015,49.801
		h-8.868l0.017-60.154H290.1l13.977,45.071"/>
	<path fill="#333399" d="M373.6,67.138h-22.67v17.671h25.348v9.015h-36.324V33.669h34.984v9.015H350.93v15.529h22.67V67.138z"/>
</g>
<g>
	<g>
		<path fill="#4A4A49" d="M200,65.39h-5v-3h5V65.39z M191,65.39h-5v-3h5V65.39z M182,65.39h-5v-3h5V65.39z"/>
	</g>
	<g>
		<g>
			<polygon fill="none" points="195,57.383 195,70.952 206.771,64.167 			"/>
		</g>
		<g>
			<polygon fill="#4A4A49" points="206.771,64.167 195,70.952 195,74.415 212.779,64.167 195,53.92 195,57.383 			"/>
		</g>
	</g>
</g>
</svg>
